<svg xmlns="http://www.w3.org/2000/svg" width="512" height="512" viewBox="0 0 512 512">
  <clipPath id="e150"><ellipse cx="150" cy="228" rx="66" ry="78"/></clipPath>
  <ellipse cx="150" cy="228" rx="66" ry="78" fill="#fffaf1"/>
  <ellipse cx="150" cy="232" rx="24.0" ry="31.0" fill="#22162b"/>
  <circle cx="143" cy="221" r="6.5" fill="#ffffff"/>
  <g clip-path="url(#e150)"><path d="M76 142 H224 V237.36 Q150 257.36 76 237.36 Z" fill="#22162b" opacity="0.18" transform="translate(0 9)"/><path d="M76 142 H224 V237.36 Q150 257.36 76 237.36 Z" fill="#fe00ff"/></g>
  <ellipse cx="150" cy="228" rx="66" ry="78" fill="none" stroke="#22162b" stroke-width="10"/>
  <path d="M84.5 237.4 Q150 257.4 215.5 237.4" fill="none" stroke="#22162b" stroke-width="14" stroke-linecap="round"/>
  <path d="M84.5 237.4 L66.5 228.4" stroke="#22162b" stroke-width="11" stroke-linecap="round"/>
  <clipPath id="e362"><ellipse cx="362" cy="228" rx="66" ry="78"/></clipPath>
  <ellipse cx="362" cy="228" rx="66" ry="78" fill="#fffaf1"/>
  <ellipse cx="362" cy="232" rx="24.0" ry="31.0" fill="#22162b"/>
  <circle cx="355" cy="221" r="6.5" fill="#ffffff"/>
  <g clip-path="url(#e362)"><path d="M288 142 H436 V237.36 Q362 257.36 288 237.36 Z" fill="#22162b" opacity="0.18" transform="translate(0 9)"/><path d="M288 142 H436 V237.36 Q362 257.36 288 237.36 Z" fill="#fe00ff"/></g>
  <ellipse cx="362" cy="228" rx="66" ry="78" fill="none" stroke="#22162b" stroke-width="10"/>
  <path d="M296.5 237.4 Q362 257.4 427.5 237.4" fill="none" stroke="#22162b" stroke-width="14" stroke-linecap="round"/>
  <path d="M427.5 237.4 L445.5 228.4" stroke="#22162b" stroke-width="11" stroke-linecap="round"/>
  <path d="M106 138 Q150 126 194 138" fill="none" stroke="#22162b" stroke-width="20" stroke-linecap="round" transform="rotate(22 150 134)"/>
  <path d="M318 138 Q362 126 406 138" fill="none" stroke="#22162b" stroke-width="20" stroke-linecap="round" transform="rotate(-22 362 134)"/>
  <ellipse cx="110" cy="336" rx="40" ry="15" fill="#ff6f86" opacity="0.4"/>
  <ellipse cx="402" cy="336" rx="40" ry="15" fill="#ff6f86" opacity="0.4"/>
  <rect x="198" y="336" width="116" height="34" rx="14" fill="#fffaf1" stroke="#22162b" stroke-width="10"/>
  <path d="M204 353 H308" stroke="#22162b" stroke-width="5"/>
  <path d="M228 340 V366" stroke="#22162b" stroke-width="4.5"/>
  <path d="M256 340 V366" stroke="#22162b" stroke-width="4.5"/>
  <path d="M284 340 V366" stroke="#22162b" stroke-width="4.5"/>
  <path d="M420 120 Q404 150 412 166 Q420 178 432 166 Q440 150 420 120 Z" fill="#9fd6ff" stroke="#22162b" stroke-width="6"/>
  <ellipse cx="418" cy="160" rx="4" ry="7" fill="#ffffff"/>
</svg>
