<svg xmlns="http://www.w3.org/2000/svg" width="256" height="256" viewBox="0 0 256 256">
  <rect width="256" height="256" fill="#ff00ff"/>
  <circle cx="115.8" cy="143.3" r="2.4" fill="#000000" opacity="0.08"/>
  <circle cx="130.0" cy="150.4" r="2.5" fill="#ffffff" opacity="0.08"/>
  <circle cx="161.2" cy="203.0" r="2.1" fill="#ffffff" opacity="0.08"/>
  <circle cx="23.2" cy="207.3" r="1.6" fill="#000000" opacity="0.08"/>
  <circle cx="251.4" cy="247.0" r="2.7" fill="#000000" opacity="0.08"/>
  <circle cx="40.3" cy="3.8" r="1.6" fill="#000000" opacity="0.08"/>
  <circle cx="40.3" cy="259.8" r="1.9" fill="#000000" opacity="0.08"/>
  <circle cx="61.9" cy="7.7" r="2.4" fill="#ffffff" opacity="0.08"/>
  <circle cx="215.7" cy="132.9" r="2.5" fill="#000000" opacity="0.08"/>
  <circle cx="169.6" cy="117.1" r="3.5" fill="#ffffff" opacity="0.08"/>
  <circle cx="-1.1" cy="215.1" r="2.1" fill="#000000" opacity="0.08"/>
  <circle cx="254.9" cy="215.1" r="2.0" fill="#000000" opacity="0.08"/>
  <circle cx="74.0" cy="18.0" r="2.3" fill="#000000" opacity="0.08"/>
  <circle cx="216.7" cy="98.9" r="3.2" fill="#000000" opacity="0.08"/>
  <circle cx="0.1" cy="53.7" r="2.4" fill="#000000" opacity="0.08"/>
  <circle cx="256.1" cy="53.7" r="3.5" fill="#000000" opacity="0.08"/>
  <circle cx="101.7" cy="18.7" r="3.1" fill="#000000" opacity="0.08"/>
  <circle cx="69.1" cy="22.3" r="3.4" fill="#ffffff" opacity="0.08"/>
  <circle cx="194.1" cy="30.2" r="1.7" fill="#ffffff" opacity="0.08"/>
  <circle cx="15.3" cy="204.0" r="2.6" fill="#ffffff" opacity="0.08"/>
  <circle cx="114.5" cy="48.8" r="1.8" fill="#000000" opacity="0.08"/>
  <circle cx="164.8" cy="29.8" r="1.9" fill="#ffffff" opacity="0.08"/>
  <circle cx="69.1" cy="248.6" r="2.1" fill="#000000" opacity="0.08"/>
  <circle cx="226.5" cy="53.9" r="3.2" fill="#ffffff" opacity="0.08"/>
  <circle cx="164.3" cy="25.7" r="1.9" fill="#000000" opacity="0.08"/>
  <circle cx="66.1" cy="197.8" r="2.1" fill="#ffffff" opacity="0.08"/>
  <circle cx="18.8" cy="23.1" r="2.0" fill="#000000" opacity="0.08"/>
  <circle cx="153.9" cy="95.2" r="3.4" fill="#ffffff" opacity="0.08"/>
  <circle cx="123.8" cy="147.1" r="1.9" fill="#000000" opacity="0.08"/>
  <circle cx="39.5" cy="232.6" r="2.0" fill="#000000" opacity="0.08"/>
  <circle cx="48.6" cy="189.3" r="1.9" fill="#000000" opacity="0.08"/>
  <circle cx="243.2" cy="225.8" r="2.3" fill="#000000" opacity="0.08"/>
  <circle cx="26.6" cy="9.9" r="2.0" fill="#000000" opacity="0.08"/>
  <circle cx="180.4" cy="65.8" r="2.7" fill="#000000" opacity="0.08"/>
  <circle cx="75.1" cy="44.9" r="1.6" fill="#000000" opacity="0.08"/>
  <circle cx="58.5" cy="143.2" r="2.7" fill="#000000" opacity="0.08"/>
  <circle cx="71.7" cy="234.8" r="1.5" fill="#ffffff" opacity="0.08"/>
  <circle cx="68.9" cy="114.1" r="1.9" fill="#ffffff" opacity="0.08"/>
  <circle cx="94.4" cy="146.5" r="2.2" fill="#ffffff" opacity="0.08"/>
  <circle cx="228.1" cy="251.0" r="2.9" fill="#000000" opacity="0.08"/>
  <circle cx="149.6" cy="35.9" r="1.5" fill="#ffffff" opacity="0.08"/>
  <circle cx="233.0" cy="179.4" r="1.5" fill="#000000" opacity="0.08"/>
  <circle cx="162.9" cy="123.5" r="2.1" fill="#000000" opacity="0.08"/>
  <circle cx="-0.2" cy="19.3" r="3.0" fill="#000000" opacity="0.08"/>
  <circle cx="255.8" cy="19.3" r="3.3" fill="#000000" opacity="0.08"/>
  <circle cx="188.7" cy="180.1" r="3.3" fill="#000000" opacity="0.08"/>
  <circle cx="90.1" cy="175.4" r="3.2" fill="#000000" opacity="0.08"/>
  <circle cx="106.8" cy="202.4" r="2.6" fill="#000000" opacity="0.08"/>
  <circle cx="160.0" cy="97.9" r="2.7" fill="#000000" opacity="0.08"/>
  <circle cx="20.5" cy="163.7" r="3.3" fill="#000000" opacity="0.08"/>
  <circle cx="186.4" cy="99.4" r="2.7" fill="#000000" opacity="0.08"/>
  <circle cx="112.8" cy="214.6" r="3.0" fill="#ffffff" opacity="0.08"/>
  <circle cx="7.6" cy="153.9" r="2.0" fill="#ffffff" opacity="0.08"/>
  <circle cx="178.8" cy="127.3" r="3.3" fill="#000000" opacity="0.08"/>
  <circle cx="65.5" cy="2.9" r="2.9" fill="#ffffff" opacity="0.08"/>
  <circle cx="65.5" cy="258.9" r="1.9" fill="#ffffff" opacity="0.08"/>
  <circle cx="43.4" cy="231.9" r="2.4" fill="#000000" opacity="0.08"/>
  <circle cx="228.3" cy="83.7" r="1.9" fill="#000000" opacity="0.08"/>
  <circle cx="110.3" cy="206.3" r="3.3" fill="#000000" opacity="0.08"/>
  <circle cx="98.4" cy="149.3" r="1.8" fill="#ffffff" opacity="0.08"/>
  <circle cx="127.1" cy="214.3" r="2.9" fill="#000000" opacity="0.08"/>
  <circle cx="243.2" cy="70.9" r="2.4" fill="#ffffff" opacity="0.08"/>
  <circle cx="70.4" cy="54.8" r="2.8" fill="#ffffff" opacity="0.08"/>
  <circle cx="126.4" cy="80.7" r="3.5" fill="#000000" opacity="0.08"/>
  <circle cx="115.8" cy="19.1" r="3.2" fill="#ffffff" opacity="0.08"/>
  <circle cx="10.6" cy="181.4" r="2.1" fill="#000000" opacity="0.08"/>
  <circle cx="202.6" cy="4.9" r="2.4" fill="#ffffff" opacity="0.08"/>
  <circle cx="6.3" cy="212.4" r="1.8" fill="#ffffff" opacity="0.08"/>
  <circle cx="12.0" cy="161.1" r="2.8" fill="#ffffff" opacity="0.08"/>
  <circle cx="167.7" cy="206.7" r="2.9" fill="#000000" opacity="0.08"/>
  <circle cx="51.0" cy="121.6" r="1.5" fill="#ffffff" opacity="0.08"/>
  <circle cx="120.9" cy="182.8" r="2.0" fill="#ffffff" opacity="0.08"/>
  <circle cx="88.5" cy="178.5" r="2.7" fill="#000000" opacity="0.08"/>
  <circle cx="193.6" cy="100.7" r="3.3" fill="#000000" opacity="0.08"/>
  <circle cx="22.3" cy="238.7" r="1.8" fill="#000000" opacity="0.08"/>
  <circle cx="116.1" cy="160.1" r="2.3" fill="#000000" opacity="0.08"/>
  <circle cx="145.6" cy="225.1" r="3.4" fill="#000000" opacity="0.08"/>
  <circle cx="118.7" cy="166.7" r="2.9" fill="#ffffff" opacity="0.08"/>
  <circle cx="209.5" cy="164.3" r="1.9" fill="#000000" opacity="0.08"/>
  <circle cx="230.4" cy="251.0" r="2.6" fill="#000000" opacity="0.08"/>
  <circle cx="202.4" cy="82.0" r="3.2" fill="#000000" opacity="0.08"/>
  <circle cx="89.2" cy="21.2" r="2.6" fill="#ffffff" opacity="0.08"/>
  <circle cx="196.7" cy="124.8" r="3.1" fill="#ffffff" opacity="0.08"/>
  <circle cx="16.4" cy="204.8" r="2.2" fill="#ffffff" opacity="0.08"/>
  <circle cx="201.7" cy="36.0" r="2.5" fill="#ffffff" opacity="0.08"/>
  <circle cx="185.2" cy="215.0" r="3.4" fill="#000000" opacity="0.08"/>
  <circle cx="126.1" cy="243.0" r="1.9" fill="#ffffff" opacity="0.08"/>
  <circle cx="134.8" cy="74.3" r="2.8" fill="#000000" opacity="0.08"/>
  <circle cx="133.8" cy="216.0" r="2.1" fill="#000000" opacity="0.08"/>
  <circle cx="97.6" cy="216.4" r="1.9" fill="#000000" opacity="0.08"/>
  <circle cx="217.8" cy="247.9" r="2.6" fill="#000000" opacity="0.08"/>
  <circle cx="51.4" cy="137.2" r="2.7" fill="#000000" opacity="0.08"/>
  <circle cx="7.1" cy="248.2" r="2.3" fill="#000000" opacity="0.08"/>
  <circle cx="205.1" cy="144.1" r="2.9" fill="#ffffff" opacity="0.08"/>
  <circle cx="16.9" cy="137.9" r="3.4" fill="#ffffff" opacity="0.08"/>
  <circle cx="236.4" cy="68.9" r="1.8" fill="#ffffff" opacity="0.08"/>
  <circle cx="111.0" cy="208.8" r="2.5" fill="#000000" opacity="0.08"/>
  <circle cx="81.2" cy="49.0" r="3.4" fill="#000000" opacity="0.08"/>
  <circle cx="33.1" cy="199.5" r="1.9" fill="#ffffff" opacity="0.08"/>
  <circle cx="58.2" cy="175.9" r="2.2" fill="#ffffff" opacity="0.08"/>
  <circle cx="158.7" cy="26.9" r="1.7" fill="#000000" opacity="0.08"/>
  <circle cx="130.7" cy="64.1" r="2.6" fill="#ffffff" opacity="0.08"/>
  <circle cx="111.8" cy="96.2" r="2.6" fill="#ffffff" opacity="0.08"/>
  <circle cx="40.9" cy="52.3" r="2.8" fill="#000000" opacity="0.08"/>
  <circle cx="135.6" cy="217.9" r="3.2" fill="#000000" opacity="0.08"/>
  <circle cx="59.6" cy="189.6" r="3.3" fill="#000000" opacity="0.08"/>
  <circle cx="80.9" cy="80.6" r="1.9" fill="#000000" opacity="0.08"/>
  <circle cx="-0.4" cy="227.2" r="2.0" fill="#ffffff" opacity="0.08"/>
  <circle cx="255.6" cy="227.2" r="3.0" fill="#ffffff" opacity="0.08"/>
  <circle cx="66.4" cy="24.8" r="2.3" fill="#000000" opacity="0.08"/>
  <circle cx="202.2" cy="32.3" r="2.9" fill="#ffffff" opacity="0.08"/>
  <circle cx="4.5" cy="51.4" r="3.3" fill="#000000" opacity="0.08"/>
  <circle cx="247.9" cy="29.5" r="3.0" fill="#000000" opacity="0.08"/>
  <circle cx="128.7" cy="175.5" r="1.6" fill="#ffffff" opacity="0.08"/>
  <circle cx="27.2" cy="9.6" r="2.5" fill="#000000" opacity="0.08"/>
  <circle cx="145.6" cy="37.5" r="1.9" fill="#ffffff" opacity="0.08"/>
  <circle cx="215.1" cy="-2.5" r="1.7" fill="#000000" opacity="0.08"/>
  <circle cx="215.1" cy="253.5" r="1.6" fill="#000000" opacity="0.08"/>
  <circle cx="243.6" cy="118.3" r="2.2" fill="#000000" opacity="0.08"/>
  <circle cx="119.5" cy="131.9" r="2.7" fill="#ffffff" opacity="0.08"/>
  <circle cx="3.4" cy="179.5" r="1.9" fill="#000000" opacity="0.08"/>
  <circle cx="259.4" cy="179.5" r="2.4" fill="#000000" opacity="0.08"/>
  <circle cx="189.3" cy="103.8" r="1.8" fill="#ffffff" opacity="0.08"/>
  <circle cx="131.2" cy="3.9" r="3.1" fill="#000000" opacity="0.08"/>
  <circle cx="131.2" cy="259.9" r="2.9" fill="#000000" opacity="0.08"/>
  <circle cx="220.3" cy="161.1" r="2.7" fill="#ffffff" opacity="0.08"/>
  <circle cx="129.1" cy="251.6" r="2.0" fill="#000000" opacity="0.08"/>
  <circle cx="233.3" cy="190.6" r="3.1" fill="#000000" opacity="0.08"/>
  <circle cx="103.8" cy="229.5" r="2.9" fill="#000000" opacity="0.08"/>
  <circle cx="196.4" cy="195.9" r="2.9" fill="#ffffff" opacity="0.08"/>
  <circle cx="18.1" cy="87.5" r="1.5" fill="#ffffff" opacity="0.08"/>
  <circle cx="91.0" cy="163.5" r="2.0" fill="#000000" opacity="0.08"/>
  <circle cx="241.8" cy="170.5" r="2.8" fill="#ffffff" opacity="0.08"/>
  <circle cx="145.8" cy="136.5" r="3.5" fill="#ffffff" opacity="0.08"/>
  <circle cx="164.4" cy="179.5" r="3.5" fill="#000000" opacity="0.08"/>
  <circle cx="5.8" cy="157.5" r="2.0" fill="#000000" opacity="0.08"/>
  <circle cx="102.8" cy="12.9" r="2.3" fill="#ffffff" opacity="0.08"/>
  <circle cx="25.2" cy="64.2" r="2.6" fill="#000000" opacity="0.08"/>
  <circle cx="130.0" cy="247.6" r="3.5" fill="#000000" opacity="0.08"/>
  <circle cx="163.3" cy="207.2" r="2.7" fill="#ffffff" opacity="0.08"/>
  <circle cx="194.4" cy="11.5" r="1.8" fill="#000000" opacity="0.08"/>
  <circle cx="120.8" cy="43.3" r="2.7" fill="#ffffff" opacity="0.08"/>
  <circle cx="15.0" cy="242.0" r="2.6" fill="#ffffff" opacity="0.08"/>
  <circle cx="153.0" cy="93.6" r="2.8" fill="#ffffff" opacity="0.08"/>
  <circle cx="143.5" cy="72.6" r="2.1" fill="#000000" opacity="0.08"/>
  <circle cx="3.6" cy="62.7" r="1.8" fill="#ffffff" opacity="0.08"/>
  <circle cx="259.6" cy="62.7" r="3.0" fill="#ffffff" opacity="0.08"/>
  <circle cx="99.8" cy="229.8" r="1.6" fill="#000000" opacity="0.08"/>
  <circle cx="-2.9" cy="241.8" r="3.3" fill="#ffffff" opacity="0.08"/>
  <circle cx="253.1" cy="241.8" r="2.4" fill="#ffffff" opacity="0.08"/>
  <circle cx="122.3" cy="249.1" r="2.5" fill="#ffffff" opacity="0.08"/>
  <path d="M0 0 H256 M0 128.0 H256 M0 0 V256 M128.0 0 V256" stroke="#000000" stroke-width="3" opacity="0.18"/>
</svg>
